<svg version="1.0" xmlns="http://www.w3.org/2000/svg" width="682.667" height="682.667" viewBox="0 0 512 512"><path d="M250 7.7c-3.3 4.3-6.6 8.5-7.3 9.3-.7.8-2.3 3.1-3.7 5-1.3 1.9-4.2 5.8-6.4 8.6-2.3 2.8-4.8 6.1-5.6 7.3-.8 1.2-8.3 11.6-16.6 23-12.3 16.9-23.1 32.4-40.4 58.1-3.5 5.2-15.7 24.2-21.4 33.5-3.7 6-7.7 12.2-8.7 13.7-1 1.5-1.9 3-1.9 3.4 0 .3-.8 1.8-1.9 3.2-5.6 8-30.8 55.3-37.1 69.7-1.2 2.7-3.6 7.9-5.2 11.5-4.3 9.4-13.1 33.1-14.3 38.3-.2 1.2-1.3 6-2.4 10.7-2.1 8.9-3.6 20.8-3.4 27.5.2 7.1 1.2 21.9 1.7 24 .2 1.1.7 4 1.1 6.5 1.3 8.5 5.5 23.8 8.9 32.8C109.9 458 167.7 503 235.5 510.7c12.7 1.5 37.4.8 50.5-1.3 16.9-2.7 43.7-11.7 55-18.5.8-.5 2.2-1.2 3-1.6 2.9-1.3 18.6-11.6 24.5-16.2 8.7-6.6 25-23.2 32.8-33.4 3.7-4.8 6.7-8.9 6.7-9.2 0-.3 1.6-2.9 3.4-5.9 13.6-21.1 24.4-53.7 26.2-78.5.5-7.7.5-27.6 0-29.2-.3-.8-.8-3.2-1-5.4-.7-5.7-5.6-24.8-6.7-26-.5-.5-.9-1.6-.9-2.5 0-1.9-5.8-17.5-9.5-25.5-1.5-3.3-3.4-7.8-4.3-10-5.5-14.2-33.7-65.9-51-93.5-26.6-42.4-68.7-103.2-95.4-137.5-.4-.6-1.8-2.4-3.1-4-1.3-1.7-4-5.1-6-7.8L256.1 0 250 7.7z"/></svg>